<?xml version="1.0" standalone="no"?>
<!DOCTYPE svg PUBLIC "-//W3C//DTD SVG 20010904//EN"
 "http://www.w3.org/TR/2001/REC-SVG-20010904/DTD/svg10.dtd">
<svg version="1.0" xmlns="http://www.w3.org/2000/svg"
 width="512.000000pt" height="512.000000pt" viewBox="0 0 512.000000 512.000000"
 preserveAspectRatio="xMidYMid meet">

<g transform="translate(0.000000,512.000000) scale(0.100000,-0.100000)"
fill="#000000" stroke="none">
<path d="M2133 4030 c-366 -18 -917 -73 -1045 -105 -176 -44 -334 -187 -387
-348 -54 -166 -101 -638 -101 -1022 0 -297 29 -661 70 -894 24 -134 70 -232
146 -311 101 -107 190 -150 352 -175 661 -98 1554 -122 2242 -59 205 18 469
51 575 70 234 44 401 210 449 446 73 357 103 1022 62 1403 -23 218 -62 473
-82 532 -53 157 -174 283 -329 339 -97 35 -523 87 -940 114 -224 15 -795 20
-1012 10z m727 -150 c392 -14 977 -67 1120 -102 112 -27 221 -113 265 -211 42
-92 94 -487 110 -842 11 -228 -20 -684 -65 -987 -30 -195 -94 -299 -224 -363
-173 -85 -1172 -160 -1804 -136 -496 19 -1083 79 -1199 123 -80 29 -181 130
-211 208 -67 182 -113 932 -83 1380 32 476 68 627 173 726 78 73 149 100 323
123 295 40 638 69 934 80 295 12 362 12 661 1z"/>
</g>
</svg>
